<?xml version="1.0" encoding="utf-8"?>
<!-- Generator: Adobe Illustrator 20.0.0, SVG Export Plug-In . SVG Version: 6.00 Build 0)  -->
<svg version="1.1" xmlns="http://www.w3.org/2000/svg" xmlns:xlink="http://www.w3.org/1999/xlink" x="0px" y="0px" width="253px"
	 height="336px" viewBox="0 0 253 336" style="enable-background:new 0 0 253 336;" xml:space="preserve">
<style type="text/css">
	.st0{opacity:0.5;fill:#6F97A8;}
	.st1{fill:#5ACFF1;}
	.st2{fill:#FFFFFF;}
	.st3{fill:#FBF6A2;}
	.st4{font-family:'DINAlternate-Bold';}
	.st5{font-size:65px;}
	.st6{fill:#D2E7EF;}
	.st7{fill:#BC95E1;}
	.st8{fill:#6F97A8;}
	.st9{fill:#F4DCD3;}
	.st10{fill:#C6A376;}
	.st11{fill:#ECD7A0;}
	.st12{fill:#FCABDE;}
	.st13{fill:#D9E3DA;}
</style>
<g id="Layer_1">
	<path class="st0" d="M75,113H19c-4.4,0-8-3.6-8-8V21c0-4.4,3.6-8,8-8h56c4.4,0,8,3.6,8,8v84C83,109.4,79.4,113,75,113z"/>
	<path class="st0" d="M157,113h-56c-4.4,0-8-3.6-8-8V21c0-4.4,3.6-8,8-8h56c4.4,0,8,3.6,8,8v84C165,109.4,161.4,113,157,113z"/>
	<path class="st0" d="M239,113h-56c-4.4,0-8-3.6-8-8V21c0-4.4,3.6-8,8-8h56c4.4,0,8,3.6,8,8v84C247,109.4,243.4,113,239,113z"/>
	<path class="st0" d="M75,221H19c-4.4,0-8-3.6-8-8v-84c0-4.4,3.6-8,8-8h56c4.4,0,8,3.6,8,8v84C83,217.4,79.4,221,75,221z"/>
	<path class="st0" d="M157,221h-56c-4.4,0-8-3.6-8-8v-84c0-4.4,3.6-8,8-8h56c4.4,0,8,3.6,8,8v84C165,217.4,161.4,221,157,221z"/>
	<path class="st0" d="M239,221h-56c-4.4,0-8-3.6-8-8v-84c0-4.4,3.6-8,8-8h56c4.4,0,8,3.6,8,8v84C247,217.4,243.4,221,239,221z"/>
	<path class="st0" d="M75,329H19c-4.4,0-8-3.6-8-8v-84c0-4.4,3.6-8,8-8h56c4.4,0,8,3.6,8,8v84C83,325.4,79.4,329,75,329z"/>
	<path class="st0" d="M157,329h-56c-4.4,0-8-3.6-8-8v-84c0-4.4,3.6-8,8-8h56c4.4,0,8,3.6,8,8v84C165,325.4,161.4,329,157,329z"/>
</g>
<g id="Layer_2">
	<g>
		<path class="st1" d="M81,81V14c0-2.8-2.2-5-5-5H14c-2.8,0-5,2.2-5,5v67H81z"/>
		<path class="st2" d="M76,109H14c-2.8,0-5-2.2-5-5V81h72v23C81,106.8,78.8,109,76,109z"/>
		<text transform="matrix(1 0 0 1 26.3535 68)" class="st3 st4 st5">S</text>
	</g>
	<g>
		<path class="st6" d="M163,81V14c0-2.8-2.2-5-5-5H96c-2.8,0-5,2.2-5,5v67H163z"/>
		<path class="st2" d="M158,109H96c-2.8,0-5-2.2-5-5V81h72v23C163,106.8,160.8,109,158,109z"/>
		<text transform="matrix(1 0 0 1 99.959 68)" class="st7 st4 st5">W</text>
	</g>
	<g>
		<path class="st8" d="M245,81V14c0-2.8-2.2-5-5-5h-62c-2.8,0-5,2.2-5,5v67H245z"/>
		<path class="st2" d="M240,109h-62c-2.8,0-5-2.2-5-5V81h72v23C245,106.8,242.8,109,240,109z"/>
		<text transform="matrix(1 0 0 1 189.1797 68)" class="st9 st4 st5">A</text>
	</g>
	<g>
		<path class="st10" d="M81,189v-67c0-2.8-2.2-5-5-5H14c-2.8,0-5,2.2-5,5v67H81z"/>
		<path class="st2" d="M76,217H14c-2.8,0-5-2.2-5-5v-23h72v23C81,214.8,78.8,217,76,217z"/>
		<text transform="matrix(1 0 0 1 28.75 176)" class="st8 st4 st5">T</text>
	</g>
	<g>
		<path class="st9" d="M163,189v-67c0-2.8-2.2-5-5-5H96c-2.8,0-5,2.2-5,5v67H163z"/>
		<path class="st2" d="M158,217H96c-2.8,0-5-2.2-5-5v-23h72v23C163,214.8,160.8,217,158,217z"/>
		<text transform="matrix(1 0 0 1 108.9248 176)" class="st10 st4 st5">C</text>
	</g>
	<g>
		<path class="st11" d="M245,189v-67c0-2.8-2.2-5-5-5h-62c-2.8,0-5,2.2-5,5v67H245z"/>
		<path class="st2" d="M240,217h-62c-2.8,0-5-2.2-5-5v-23h72v23C245,214.8,242.8,217,240,217z"/>
		<text transform="matrix(1 0 0 1 187.9414 176)" class="st1 st4 st5">H</text>
	</g>
	<g>
		<path class="st3" d="M81,297v-67c0-2.8-2.2-5-5-5H14c-2.8,0-5,2.2-5,5v67H81z"/>
		<path class="st2" d="M76,325H14c-2.8,0-5-2.2-5-5v-23h72v23C81,322.8,78.8,325,76,325z"/>
		<text transform="matrix(1 0 0 1 22.7676 284)" class="st12 st4 st5">N</text>
	</g>
	<g>
		<path class="st12" d="M163,297v-67c0-2.8-2.2-5-5-5H96c-2.8,0-5,2.2-5,5v67H163z"/>
		<path class="st2" d="M158,325H96c-2.8,0-5-2.2-5-5v-23h72v23C163,322.8,160.8,325,158,325z"/>
		<text transform="matrix(1 0 0 1 108.3535 284)" class="st13 st4 st5">S</text>
	</g>
</g>
</svg>
